# xmcd
#
# Track frame offsets: 
#        150
#        19834
#        43150
#        65813
#        91474
#        114059
#        133527
#        157740
#        181193
#        202859
#        226294
#
# Disc length: 3298 seconds
#
# Revision: 0
# Processed by: cddbd v1.5.2PL0 Copyright (c) Steve Scherf et al.
# Submitted via: ExactAudioCopy v1.3
#
DISCID=840ce00b
DTITLE=Johnny Drummer - Bad Attitude
DYEAR=2013
DGENRE=Blues
TTITLE0=Is It Love Or Is It Lust
TTITLE1=Bad Attitude
TTITLE2=Make You Happy
TTITLE3=One Size Fit All
TTITLE4=Sure Sign Of The Blues
TTITLE5=Don't Call Me Trash
TTITLE6=Ain't No Secret In A Small Town
TTITLE7=U-Turn On A One Way Street
TTITLE8=Better Than Good
TTITLE9=My Woman My Money My Whiskey
TTITLE10=Star 69
EXTD=
EXTT0=
EXTT1=
EXTT2=
EXTT3=
EXTT4=
EXTT5=
EXTT6=
EXTT7=
EXTT8=
EXTT9=
EXTT10=
PLAYORDER=
